<?xml version="1.0" standalone="no"?>
<!DOCTYPE svg PUBLIC "-//W3C//DTD SVG 20010904//EN" "http://www.w3.org/TR/2001/REC-SVG-20010904/DTD/svg10.dtd">
<!-- Created using Krita: https://krita.org -->
<svg xmlns="http://www.w3.org/2000/svg" 
    xmlns:xlink="http://www.w3.org/1999/xlink"
    xmlns:krita="http://krita.org/namespaces/svg/krita"
    xmlns:sodipodi="http://sodipodi.sourceforge.net/DTD/sodipodi-0.dtd"
    width="61.44pt"
    height="61.44pt"
    viewBox="0 0 61.44 61.44">
<defs/>
<path id="shape0" transform="translate(4.52914240628374, 2.10265838154081)" fill="#000000" d="M3.03086 11.6013C4.33688 13.8634 4.9899 14.9945 4.9899 14.9945C4.9901 15.0214 4.98956 15.0421 4.98827 15.0565C4.80175 17.1386 4.64924 18.924 4.45147 21.0051C4.38277 21.728 4.28095 22.3435 4.22696 23.0676C4.07551 25.0987 3.86198 26.8388 3.86463 28.8755C3.86623 30.1083 4.08452 31.1547 4.23908 32.3778C4.29923 32.8537 4.39913 33.2543 4.47781 33.7275C4.58207 34.3545 4.65293 34.8949 4.76175 35.5211C4.76781 35.556 4.78531 35.6034 4.81424 35.6634L0.906281 28.8946C0.949659 28.9509 0.988544 28.983 1.02293 28.9909C1.23058 29.0387 1.41618 29.0865 1.6277 29.0607C2.64012 28.9377 3.51884 28.8476 4.49971 28.5682C5.47066 28.2917 6.29609 27.9842 7.17175 27.4817C8.31742 26.8243 9.28568 26.1957 10.235 25.2772C11.3099 24.2371 12.055 23.1708 12.9016 21.9376C13.3434 21.2942 13.6609 20.6861 13.8976 19.9424C14.3426 18.544 14.6522 17.3119 14.837 15.8561C14.9622 14.8697 14.88 14.0048 14.7769 13.0159C14.7087 12.3612 14.5732 11.8035 14.3499 11.1843C14.1503 10.631 13.7975 9.86831 13.2913 8.89633L17.1448 15.5707C16.7132 14.9669 16.3482 14.5349 16.0497 14.2748C15.0444 13.3988 14.1425 12.6833 13.0147 11.9719C11.9958 11.3292 11.0373 10.9224 9.94145 10.4221C9.56699 10.2511 9.21586 10.1812 8.82307 10.0581C8.3289 9.90319 7.62167 9.68596 6.7014 9.40642L2.78587 2.62452C2.86599 2.62959 2.92742 2.63524 2.97015 2.64145C3.15265 2.66797 3.30664 2.70802 3.49009 2.72687C4.08902 2.78842 4.60225 2.87893 5.20428 2.87103C6.49503 2.85408 7.59972 2.7625 8.88617 2.65601C9.29593 2.62209 9.63921 2.52914 10.0461 2.47022C11.3806 2.277 12.5182 2.05403 13.8614 1.93561C14.3964 1.88844 14.8584 1.96741 15.3945 1.99869C15.5223 2.00614 15.6294 2.03749 15.7571 2.04619C16.1482 2.07282 16.4842 2.0821 16.8757 2.09956C17.0733 2.10837 17.2519 2.06115 17.4403 2.12124C17.5686 2.16214 17.6632 2.25658 17.7316 2.37251C17.9887 2.80779 18.3199 3.44946 18.7255 4.29754L22.5841 10.9808C24.0519 16.1029 25.1182 20.0588 25.783 22.8488C26.6208 26.3648 27.1227 29.4264 27.8242 32.9721C27.913 33.4213 27.9613 33.8114 28.0408 34.2623C28.0689 34.4217 28.1033 34.5564 28.1317 34.7157C28.1785 34.9788 28.2083 35.2061 28.2555 35.4691C28.284 35.6279 28.3173 35.7624 28.3479 35.9208C28.3718 36.0447 28.3802 36.1533 28.4111 36.2756C28.4211 36.3151 28.4435 36.3688 28.4783 36.4367L24.5641 29.657C24.5933 29.6693 24.614 29.6715 24.6264 29.6636C24.7321 29.5964 24.8484 29.5512 24.9059 29.4398C25.4211 28.4408 25.911 27.5944 26.2467 26.5217C27.0659 23.9041 27.5436 21.5956 28.1946 18.9312C28.4191 18.0124 28.5164 17.2032 28.7476 16.286C29.9263 11.6089 31.004 7.61714 32.2223 2.95016C32.307 2.62582 32.3704 2.34504 32.4704 2.02512C32.5475 1.77883 32.577 1.5436 32.7278 1.33419C32.8505 1.16383 33.0143 1.04064 33.2175 0.987792C33.6295 0.880635 34.0044 0.905 34.4299 0.89146C35.1949 0.867116 35.8547 0.951933 36.6166 0.879621C37.6764 0.779042 38.5686 0.566056 39.62 0.398896C39.9038 0.353776 40.1459 0.306662 40.4313 0.273106C41.3171 0.168944 42.0768 0.0803132 42.9657 0.00550276C43.1168 -0.00721996 43.2483 0.00352606 43.3987 0.0233439C43.7682 0.0720335 44.0819 0.134247 44.4486 0.200917C44.6583 0.239039 44.8338 0.295864 45.0452 0.322711C45.5731 0.389754 46.0277 0.432174 46.5586 0.468873C46.9329 0.494744 47.2553 0.482698 47.63 0.501387C47.6867 0.504215 47.7357 0.512468 47.7896 0.530272C47.915 0.571681 48.0205 0.613681 48.14 0.669855C48.2351 0.714569 48.3139 0.759405 48.4012 0.817861C48.4466 0.848234 48.4806 0.88162 48.5171 0.922295C48.5473 0.956067 48.5862 1.00784 48.6338 1.07761L52.5459 7.8536C52.6616 8.1932 52.7268 8.45825 52.7416 8.64875C52.8258 9.73825 52.7562 10.6802 52.8485 11.769C52.9918 13.4579 53.3044 14.8871 53.4142 16.5785C53.5592 18.8109 53.7191 20.7357 53.5756 22.9681C53.4378 25.1119 53.0786 26.9328 52.6139 29.0301C52.3357 30.2854 52.0105 31.3559 51.4594 32.5175C51.1705 33.1264 50.7476 33.5617 50.2488 34.0149C49.5215 34.6756 48.8153 35.1498 47.9844 35.6742C47.5203 35.9672 47.0808 36.1533 46.5648 36.3401C46.1934 36.4746 45.854 36.527 45.4635 36.5868C44.9461 36.6662 44.4989 36.7301 43.9755 36.737C43.4893 36.7434 43.0729 36.688 42.5908 36.6248C42.3644 36.5951 42.1742 36.541 41.9564 36.4722C41.6263 36.3678 41.3512 36.2549 41.0279 36.131C40.9545 36.1028 40.8951 36.0706 40.8236 36.038C40.6995 35.9815 40.5937 35.9319 40.4692 35.8762C40.3826 35.8375 40.3067 35.808 40.2205 35.7684C40.1437 35.733 40.0803 35.6976 40.0036 35.6619C39.9379 35.6313 39.878 35.6128 39.8139 35.579C39.7417 35.5407 39.6801 35.5059 39.6151 35.4564C39.6028 35.447 39.591 35.4283 39.5796 35.4004L35.6649 28.6199C35.6509 28.5852 35.6465 28.5588 35.6517 28.5409C36.0024 27.3213 36.3307 26.2841 36.6868 25.0661C36.8769 24.416 37.0287 23.8557 37.2122 23.2037C37.3989 22.5402 37.558 21.9713 37.7444 21.3077C37.9929 20.4225 38.2456 19.674 38.4548 18.7787C38.8533 17.0728 39.1934 15.6078 39.4795 13.8794C39.6644 12.762 39.6986 11.7874 39.7988 10.6592C39.8097 10.5364 39.8143 10.3603 39.8125 10.1309L43.7201 16.8992C43.7195 17.1246 43.7131 17.2975 43.701 17.4181C43.5901 18.5281 43.5424 19.487 43.3516 20.5861C43.0537 22.3018 42.712 23.7569 42.3067 25.4504C42.0938 26.3398 41.8364 27.0823 41.5862 27.9619C41.3977 28.6244 41.2378 29.1928 41.0531 29.8564C40.8703 30.5129 40.7154 31.0761 40.5363 31.7336C40.1946 32.9881 39.8934 34.0612 39.5652 35.3192C39.5603 35.3378 39.5651 35.3649 39.5796 35.4004L35.6649 28.6199C35.6764 28.6479 35.6882 28.6666 35.7005 28.6761C35.7664 28.727 35.8285 28.7633 35.9018 28.8029C35.9662 28.8377 36.0266 28.8568 36.0928 28.8882C36.1698 28.9246 36.2336 28.9606 36.3109 28.9966C36.3973 29.0369 36.4733 29.0674 36.5605 29.1062C36.6841 29.1612 36.7898 29.2091 36.9131 29.2648C36.9847 29.2972 37.0442 29.3292 37.1174 29.3578C37.4431 29.4852 37.7196 29.6029 38.0524 29.7102C38.2702 29.7804 38.461 29.8334 38.6877 29.8643C39.1717 29.9303 39.5895 29.9893 40.078 29.9864C40.6033 29.9833 41.0527 29.9241 41.5724 29.8472C41.9633 29.7893 42.3022 29.7343 42.6747 29.6022C43.1924 29.4186 43.6347 29.2384 44.1021 28.9499C44.9374 28.4345 45.6504 27.971 46.3808 27.3154C46.8823 26.8652 47.2988 26.4251 47.5914 25.818C48.1456 24.6684 48.4861 23.6112 48.7664 22.3662C49.2379 20.2726 49.595 18.4529 49.7323 16.3114C49.8757 14.0752 49.7135 12.1472 49.565 9.91137C49.4521 8.21176 49.1375 6.7758 48.9861 5.07919C48.8875 3.97339 48.9484 3.016 48.851 1.91008C48.8334 1.71011 48.761 1.43262 48.6338 1.07761L52.5459 7.8536C52.4989 7.78478 52.4604 7.73374 52.4304 7.70048C52.3943 7.66034 52.3603 7.62765 52.3155 7.59757C52.2276 7.53863 52.1487 7.49264 52.053 7.44739C51.9336 7.39094 51.828 7.34892 51.7026 7.30769C51.6489 7.29006 51.6 7.28302 51.5436 7.27996C51.1676 7.25955 50.8439 7.26896 50.4683 7.24071C49.9354 7.20061 49.4792 7.1545 48.9493 7.08479C48.7378 7.05698 48.5621 7.00073 48.3523 6.96237C47.9854 6.89528 47.6715 6.83284 47.3017 6.78356C47.1511 6.76349 47.0195 6.75317 46.868 6.76454C45.9744 6.83164 45.2101 6.9098 44.3194 7.0075C44.0337 7.03884 43.7919 7.08908 43.508 7.1331C42.454 7.29648 41.5588 7.5026 40.4967 7.60007C39.7342 7.67005 39.0741 7.5797 38.309 7.61021C37.8885 7.62699 37.5187 7.623 37.113 7.73501C36.9108 7.79084 36.7458 7.90826 36.6205 8.07643C36.4685 8.28028 36.4339 8.51094 36.3545 8.75247C36.2509 9.06713 36.1841 9.34363 36.0983 9.66356C34.8565 14.2924 33.7581 18.251 32.5613 22.8917C32.3255 23.8064 32.2278 24.6146 32.006 25.5327C31.3591 28.2093 30.8713 30.5234 30.0797 33.1608C29.7487 34.2639 29.2946 35.152 28.806 36.195C28.752 36.3103 28.6438 36.3689 28.5413 36.4445C28.5294 36.4533 28.5084 36.4507 28.4783 36.4367L24.5641 29.657C24.5308 29.5914 24.5094 29.5395 24.5 29.5014C24.4701 29.3803 24.4621 29.2729 24.439 29.1504C24.4094 28.9936 24.3769 28.8605 24.3493 28.7034C24.3035 28.4427 24.2746 28.2174 24.2293 27.9566C24.2019 27.7993 24.1684 27.6663 24.1417 27.5088C24.0669 27.0666 24.0246 26.6838 23.9394 26.2435C23.2602 22.7337 22.7842 19.7016 21.9579 16.2235C21.2914 13.4184 20.214 9.44312 18.7255 4.29754L22.5841 10.9808C22.1977 10.166 21.8813 9.54998 21.6346 9.1326C21.5681 9.0201 21.474 8.93077 21.3493 8.89169C21.1596 8.83226 20.9805 8.87495 20.782 8.86546C20.3903 8.84671 20.054 8.83833 19.6628 8.811C19.5347 8.80205 19.4274 8.7697 19.2993 8.76186C18.7624 8.72902 18.3001 8.65295 17.7639 8.69485C16.4123 8.80046 15.2652 9.00407 13.9212 9.1821C13.5122 9.23627 13.1665 9.3205 12.7557 9.35826C11.4794 9.47554 10.3848 9.59298 9.10358 9.62482C8.50416 9.63971 7.99253 9.54822 7.39561 9.49143C7.21386 9.47415 7.06109 9.43548 6.87988 9.41329C6.83851 9.40823 6.77902 9.40594 6.7014 9.40642L2.78587 2.62452C3.72298 2.93943 4.44413 3.18078 4.94933 3.34857C5.34069 3.47856 5.69424 3.54322 6.06914 3.71501C7.16645 4.21785 8.12731 4.62506 9.14643 5.27185C10.282 5.99252 11.1868 6.72021 12.1992 7.60552C12.4962 7.86522 12.8603 8.29549 13.2913 8.89633L17.1448 15.5707C17.6477 16.5374 17.9981 17.2959 18.1961 17.8463C18.4186 18.4646 18.5541 19.0213 18.6216 19.675C18.7235 20.6616 18.8051 21.5247 18.6776 22.5083C18.4897 23.9581 18.1739 25.1837 17.7274 26.5757C17.4889 27.3193 17.1721 27.9273 16.7323 28.5725C15.8882 29.8108 15.1472 30.8826 14.0766 31.9312C13.1323 32.8562 12.1683 33.4922 11.0276 34.1603C10.1577 34.6698 9.33706 34.9855 8.37079 35.2731C7.39781 35.5627 6.52374 35.6578 5.51859 35.8C5.31442 35.8288 5.13327 35.7988 4.93084 35.7596C4.89622 35.7529 4.85735 35.7208 4.81424 35.6634L0.906281 28.8946C0.877901 28.8355 0.860804 28.7887 0.854991 28.7544C0.750191 28.135 0.682909 27.6005 0.58239 26.9804C0.506352 26.5114 0.407814 26.1144 0.350563 25.6427C0.203878 24.434 -0.00154618 23.3993 8.77553e-06 22.1818C0.00260997 20.1451 0.209556 18.4049 0.362401 16.374C0.416691 15.6526 0.52841 15.0404 0.591687 14.3198C0.777301 12.2058 0.907249 10.3914 1.07345 8.27581C1.07469 8.26008 1.07414 8.23753 1.07182 8.20819L1.07182 8.20819C1.07182 8.20819 1.72483 9.33924 3.03086 11.6013Z" sodipodi:nodetypes="ccccccccccccccccccccccccccccccccccccccccccccccccccccccccccccccccccccccccccccccccccccccccccccccccccccccccccccccccccccccccccccccccccccccccccccccccccccccccccccccccccccccccccccccccccccccccccccccccccccccccccccccccccccc"/><path id="shape1" transform="translate(5.44526715410021, 42.8202728978888)" fill="#000000" d="M0.97988 1.6972C1.63313 2.82867 1.95976 3.3944 1.95976 3.3944C1.96198 3.40508 1.96385 3.41325 1.96536 3.41891C2.05162 3.74204 2.09314 4.02954 2.21269 4.34188C2.47472 5.0265 2.77778 5.58093 3.05292 6.26039C3.72642 7.92361 4.28249 9.35784 4.92265 11.0342C4.99473 11.2229 5.02967 11.3938 5.08725 11.5874C5.15144 11.8033 5.2023 11.9896 5.27058 12.2042C5.27984 12.2333 5.29692 12.2735 5.32181 12.3248L3.36697 8.93886C3.38719 8.9678 3.40572 8.98505 3.42254 8.99063C3.44253 8.99725 3.46787 8.99308 3.48106 8.97666C3.55184 8.88858 3.60705 8.80668 3.65324 8.70354C3.88597 8.18378 4.02984 7.71384 4.27638 7.20048C4.75735 6.19897 5.2116 5.3612 5.73024 4.37867C5.96947 3.92548 6.19896 3.5503 6.44149 3.09886C6.65455 2.70227 6.95279 2.13245 7.3362 1.3894L9.28856 4.77099C8.90081 5.50674 8.59935 6.07098 8.38418 6.46371C8.13909 6.91104 7.90567 7.28156 7.66626 7.73195C7.14501 8.71259 6.68689 9.54817 6.2112 10.5517C5.96432 11.0725 5.82973 11.5521 5.60406 12.0825C5.55892 12.1885 5.5081 12.2753 5.43864 12.3673C5.42587 12.3842 5.39934 12.3873 5.37942 12.38C5.36192 12.3737 5.34271 12.3552 5.32181 12.3248L3.36697 8.93886C3.34314 8.88922 3.32679 8.85031 3.31792 8.82213C3.25103 8.60953 3.20103 8.42506 3.13802 8.21127C3.08148 8.01939 3.04748 7.85003 2.97635 7.66306C2.34319 5.99875 1.79495 4.57406 1.12644 2.92363C0.84536 2.22971 0.533666 1.66455 0.263747 0.966218C0.140729 0.647947 0.0962523 0.355064 0.00639809 0.0258895C0.00475946 0.0198865 0.00262677 0.0112567 3.33067e-16 -3.55271e-15L3.33067e-16 -3.55271e-15C5.25117e-08 -3.03176e-08 0.326627 0.565734 0.97988 1.6972Z" sodipodi:nodetypes="ccccccccccccccccccccccccccccccccccc"/><path id="shape2" transform="translate(15.591267777554, 42.1540744899073)" fill="#000000" d="M0.97988 1.6974C0.326627 0.565932 5.25117e-08 0.000198377 0 0.000198407C0.0138065 -0.00024123 0.0243745 4.97545e-05 0.031704 0.00107136C0.351427 0.0456349 0.622733 0.108594 0.944705 0.131873C2.56632 0.249119 3.95875 0.312422 5.58211 0.402374C5.65001 0.406137 5.74717 0.407008 5.87357 0.404987L7.82186 3.77952C7.69437 3.77876 7.59637 3.77642 7.52786 3.77252C5.90385 3.68 4.51125 3.60947 2.88841 3.49846C2.57273 3.47687 2.30491 3.4289 1.99046 3.39373C1.98333 3.39293 1.9731 3.39322 1.95976 3.3946L1.95976 3.3946C1.95976 3.3946 1.63313 2.82887 0.97988 1.6974Z" sodipodi:nodetypes="ccccccccccccc"/><path id="shape3" transform="translate(19.7849770969066, 43.3602729352631)" fill="#000000" d="M0.980171 1.6972C1.63342 2.82867 1.96005 3.3944 1.96005 3.3944C1.95875 3.4126 1.9585 3.42657 1.95931 3.43632C1.96987 3.56376 1.99029 3.67224 1.99369 3.80008C2.04216 5.62289 2.05407 7.18603 2.1075 9.0087C2.13965 10.1052 2.20514 11.0437 2.23818 12.1402C2.24903 12.5003 2.25242 13.0148 2.24837 13.6839L0.296553 10.3032C0.30608 9.64251 0.306379 9.13437 0.297449 8.77879C0.270118 7.69047 0.213289 6.7587 0.180215 5.67054C0.124389 3.83384 0.101946 2.2588 0.0434534 0.422177C0.0392191 0.289222 0.0145644 0.176821 0.00103505 0.0444886C-2.08923e-05 0.0341604 -0.000268892 0.0193308 0.00029105 1.21854e-15L0.00029105 1.21854e-15C0.000291102 -3.03176e-08 0.326918 0.565734 0.980171 1.6972Z" sodipodi:nodetypes="ccccccccccccccc"/><path id="shape4" transform="translate(16.9051478685123, 53.0287545098647)" fill="#000000" d="M0.98 2.76272C0.326667 1.63111 5.25181e-08 1.06531 9.99201e-16 1.06531C0.00789319 1.06272 0.0140197 1.06094 0.0183795 1.05997C0.33452 0.989742 0.603178 0.917882 0.921904 0.860521C1.4316 0.768791 1.87287 0.716567 2.38416 0.634198C2.79388 0.568192 3.14557 0.513923 3.55331 0.436601C4.06189 0.340154 4.78694 0.19462 5.72843 0L7.67412 3.37003C6.7286 3.55693 6.00066 3.69745 5.4903 3.79157C5.08208 3.86686 4.72996 3.91875 4.32076 3.98848C3.81348 4.07493 3.37653 4.13764 2.87178 4.23781C2.55601 4.30047 2.29039 4.37721 1.97762 4.45347C1.97335 4.45452 1.96748 4.45673 1.96 4.46013L1.96 4.46013C1.96 4.46013 1.63333 3.89433 0.98 2.76272Z" sodipodi:nodetypes="ccccccccccccccc"/><path id="shape5" transform="translate(27.6036672745676, 40.9511680858196)" fill="#000000" d="M1.13548 14.3603C0.482228 13.2288 0.155601 12.6631 0.155601 12.6631C0.151533 12.6584 0.149187 12.6545 0.148561 12.6514C0.0957842 12.3874 0.00562794 12.1654 0.00228822 11.8963C-0.0103016 10.8815 0.0298512 10.0107 0.103241 8.99853C0.150589 8.34552 0.237264 7.78931 0.346876 7.14383C0.708732 5.01293 1.03779 3.18944 1.45 1.0677C1.48811 0.871589 1.5441 0.706027 1.63245 0.526844C1.68226 0.425813 1.7471 0.345422 1.83856 0.279661C1.95906 0.193015 2.07787 0.13033 2.22352 0.101833C2.56411 0.0351979 2.86585 -0.02575 3.21093 0.0111609C3.84502 0.0789855 4.38707 0.194384 4.99142 0.397899C5.50058 0.569355 5.90709 0.800587 6.36916 1.07468C6.69137 1.26582 6.95469 1.45897 7.22223 1.72122C7.4737 1.96771 7.79988 2.35067 8.20079 2.87008L10.141 6.23056C10.3382 6.65875 10.4479 6.99672 10.47 7.24445C10.5408 8.0369 10.5178 8.72611 10.4343 9.51732C10.378 10.0514 10.2421 10.4988 10.073 11.0084C9.96326 11.339 9.82 11.6061 9.64182 11.9054C9.46401 12.2041 9.29888 12.4577 9.05988 12.7101C8.71478 13.0745 8.41531 13.402 7.98304 13.6569C7.33326 14.0402 6.72616 14.2921 6.00459 14.5122C5.36075 14.7086 4.77784 14.7606 4.10925 14.8386C3.9108 14.8618 3.62539 14.86 3.25301 14.8334L1.30939 11.4669C1.68236 11.4947 1.96829 11.4973 2.16718 11.4748C2.83698 11.3991 3.42143 11.3511 4.06639 11.1552C4.78807 10.9359 5.39404 10.6811 6.04323 10.2971C6.47526 10.0415 6.77435 9.71369 7.11947 9.34921C7.35835 9.09693 7.52408 8.84386 7.70191 8.54538C7.88022 8.24611 8.02292 7.97876 8.13294 7.64822C8.30228 7.1395 8.43933 6.69311 8.49595 6.15994C8.57994 5.36917 8.60335 4.68021 8.53229 3.88817C8.50997 3.63934 8.39947 3.29998 8.20079 2.87008L10.141 6.23056C9.73947 5.70998 9.41278 5.32615 9.1609 5.07909C8.89341 4.81672 8.63019 4.62328 8.30775 4.43243C7.84676 4.15959 7.44075 3.93012 6.9327 3.76029C6.32918 3.55854 5.78819 3.44271 5.15509 3.37855C4.81173 3.34375 4.51218 3.41026 4.17433 3.48073C4.02918 3.51101 3.91164 3.57549 3.79187 3.66289C3.70086 3.72931 3.63633 3.8095 3.58583 3.91021C3.49703 4.08732 3.4387 4.25057 3.39979 4.44483C2.97801 6.55059 2.63962 8.36035 2.27071 10.476C2.15842 11.12 2.06933 11.6754 2.02527 12.3276C1.95595 13.3537 1.92431 14.2368 1.94719 15.2649C1.95339 15.5437 2.05012 15.7725 2.108 16.0452C2.10869 16.0485 2.11115 16.0526 2.11536 16.0575L2.11536 16.0575C2.11536 16.0575 1.78873 15.4918 1.13548 14.3603Z" sodipodi:nodetypes="ccccccccccccccccccccccccccccccccccccccccccccccccccc"/><path id="shape6" transform="translate(37.655579430315, 41.4605631678153)" fill="#000000" d="M8.32945 3.42211C8.32742 3.41816 8.3254 3.41572 8.32338 3.4148C8.31006 3.40873 8.29825 3.40359 8.2838 3.40131C8.24326 3.39492 8.20812 3.38922 8.16709 3.39015C6.7618 3.42185 5.55567 3.4144 4.15231 3.49451C3.54043 3.52944 3.01834 3.60736 2.41562 3.71847C2.30782 3.73834 2.21244 3.7841 2.13916 3.86561C2.05224 3.96229 1.99147 4.07218 1.98114 4.20177C1.92759 4.87344 1.94428 5.45315 1.95889 6.1268C1.97407 6.82713 2.00701 7.42734 2.06619 8.12533C2.24395 10.2217 2.41849 12.0168 2.63575 14.1095C2.65131 14.2593 2.67843 14.388 2.73103 14.5292C2.74621 14.57 2.78475 14.6187 2.84663 14.6755L0.894067 11.2935C1.0764 11.4035 1.22176 11.457 1.33014 11.4541C2.30751 11.4276 3.70102 11.3325 5.51066 11.1686L7.45575 14.5376C5.64808 14.7038 4.25605 14.8015 3.27967 14.8307C3.17238 14.834 3.02803 14.7822 2.84663 14.6755L0.894067 11.2935C0.832352 11.2372 0.793978 11.1887 0.778943 11.1481C0.727257 11.0086 0.701464 10.8812 0.686481 10.7332C0.47571 8.65098 0.308509 6.86472 0.13425 4.7791C0.0756262 4.07746 0.0398176 3.47444 0.0211847 2.7706C0.0031302 2.08861 -0.0192974 1.50188 0.029477 0.821393C0.0388357 0.690824 0.0979902 0.578936 0.185268 0.481373C0.258376 0.39965 0.355043 0.355135 0.463124 0.336644C1.07063 0.23271 1.59716 0.170576 2.21244 0.134558C3.60995 0.0527467 4.81067 0.0431696 6.20992 0.000224045C6.25023 -0.00101318 6.28488 0.00303751 6.32487 0.00833985C6.33902 0.0102167 6.35065 0.0149638 6.36376 0.0206265C6.36574 0.0214816 6.36771 0.0238427 6.36969 0.0277096L6.36969 0.0277096Z" sodipodi:nodetypes="cccccccccccccccccccccccccccccccccc"/><path id="shape7" transform="translate(39.1712694095646, 46.5120191433858)" fill="#000000" d="M0.97988 2.49946C0.326627 1.36799 5.25117e-08 0.802254 -2.22045e-16 0.802254C0.00856305 0.803638 0.015051 0.80379 0.019464 0.802711C0.0838327 0.786979 0.136895 0.764621 0.202106 0.752856C0.845793 0.636726 1.39992 0.550854 2.04409 0.437441C2.34322 0.384777 2.59897 0.335982 2.89718 0.278361C3.22663 0.214704 3.69692 0.121917 4.30803 0L6.25945 3.37995C5.64484 3.49547 5.17196 3.58376 4.84081 3.64483C4.54152 3.70003 4.28438 3.74404 3.98513 3.79941C3.34552 3.91776 2.79646 4.01498 2.15835 4.14118C2.09384 4.15393 2.04203 4.17851 1.9787 4.1962C1.97444 4.19739 1.96813 4.19754 1.95976 4.19666L1.95976 4.19666C1.95976 4.19666 1.63313 3.63092 0.97988 2.49946Z" sodipodi:nodetypes="ccccccccccccccc"/><path id="shape8" transform="translate(46.518148746306, 41.8542728310304)" fill="#000000" d="M4.241 1.6972C4.89425 2.82867 5.22088 3.3944 5.22088 3.3944C5.20893 3.39462 5.2004 3.3964 5.19528 3.39971C5.11737 3.45026 5.04088 3.48367 4.97796 3.55198C4.67963 3.87588 4.40492 4.14359 4.16814 4.51488C3.73453 5.19483 3.4284 5.81813 3.0716 6.54135C2.92021 6.84822 2.80595 7.12222 2.7186 7.45308C2.47507 8.37556 2.29381 9.17473 2.12832 10.1144C2.02394 10.7071 1.94844 11.2227 1.94873 11.8245C1.94882 12.0214 2.021 12.193 2.12941 12.3574C2.25196 12.5433 2.46472 12.7797 2.76769 13.0666L0.821062 9.69497C1.23849 10.0203 1.5749 10.2435 1.83028 10.3645C2.15797 10.5197 2.46814 10.5967 2.82746 10.6454C3.19946 10.6958 3.52646 10.6819 3.90003 10.6449C4.14612 10.6205 4.36483 10.584 4.5849 10.4712C5.01913 10.2486 5.38704 10.0299 5.74558 9.69892C6.1408 9.33409 6.4152 8.95294 6.71411 8.50578C6.91599 8.20376 7.07454 7.92323 7.1673 7.572C7.36091 6.83891 7.48688 6.19265 7.52501 5.43539C7.56739 4.59363 7.49875 3.8673 7.39596 3.03076C7.33285 2.51717 7.20293 2.08789 7.05281 1.59268C7.01346 1.46288 6.92957 1.28822 6.80114 1.0687L8.75388 4.45096C8.61592 4.27452 8.49845 4.15197 8.40147 4.08329C8.2087 3.94679 8.01659 3.87165 7.80062 3.77596C7.70365 3.73299 7.56052 3.68328 7.37123 3.62682L5.41707 0.242123C5.60663 0.299159 5.74998 0.349251 5.84713 0.392401C6.06312 0.488342 6.25539 0.563447 6.4482 0.700132C6.54534 0.768994 6.66299 0.891851 6.80114 1.0687L8.75388 4.45096C8.88158 4.66905 8.96483 4.84262 9.00365 4.97165C9.15126 5.46229 9.27802 5.88787 9.33921 6.39657C9.43949 7.23027 9.50639 7.95393 9.46326 8.79254C9.4243 9.55002 9.29951 10.1966 9.10603 10.93C9.01335 11.2813 8.85457 11.5617 8.65296 11.864C8.35432 12.3117 8.07951 12.6925 7.68572 13.0593C7.32849 13.3921 6.96375 13.6161 6.53053 13.8412C6.31114 13.9552 6.09196 13.9909 5.84593 14.0153C5.47236 14.0524 5.14542 14.0657 4.77334 14.0158C4.4149 13.9677 4.10495 13.8928 3.77806 13.7381C3.5222 13.6171 3.18541 13.3932 2.76769 13.0666L0.821062 9.69497C0.51722 9.40649 0.303788 9.16892 0.180765 8.98226C0.0723504 8.81777 -0.000461717 8.6462 2.20406e-06 8.4492C0.00141088 7.85099 0.0808603 7.33908 0.186021 6.75019C0.353582 5.81187 0.534128 5.01342 0.778088 4.09201C0.86566 3.76125 0.980627 3.48768 1.13118 3.18043C1.4869 2.45446 1.79254 1.82932 2.2223 1.14458C2.45756 0.769742 2.72866 0.49644 3.02309 0.16604C3.08507 0.0964827 3.1599 0.0599925 3.23632 0.00668951C3.24124 0.00326032 3.2495 0.00103048 3.26112 1.21854e-15L3.26112 1.21854e-15C3.26112 -3.03176e-08 3.58775 0.565734 4.241 1.6972Z" sodipodi:nodetypes="ccccccccccccccccccccccccccccccccccccccccccccccccccccccc"/>
</svg>
